<mxfile host="Electron" modified="2024-05-12T20:48:08.291Z" agent="Mozilla/5.0 (Windows NT 10.0; Win64; x64) AppleWebKit/537.36 (KHTML, like Gecko) draw.io/24.2.5 Chrome/120.0.6099.109 Electron/28.1.0 Safari/537.36" etag="FXRNSq4-u8tSW6nGomIF" version="24.2.5" type="device">
  <diagram name="Pagina-1" id="mD4ny_UwJCW5K_lFAApE">
    <mxGraphModel dx="685" dy="404" grid="1" gridSize="10" guides="1" tooltips="1" connect="1" arrows="1" fold="1" page="1" pageScale="1" pageWidth="827" pageHeight="1169" math="0" shadow="0">
      <root>
        <mxCell id="0" />
        <mxCell id="1" parent="0" />
        <mxCell id="kzGzP4HYoVfDhsVrHSL8-1" value="Oggetti Informatici" style="whiteSpace=wrap;html=1;align=center;" vertex="1" parent="1">
          <mxGeometry x="216.88" y="51.25" width="100" height="35" as="geometry" />
        </mxCell>
        <mxCell id="kzGzP4HYoVfDhsVrHSL8-5" value="&lt;font style=&quot;font-size: 8px;&quot;&gt;Misura&lt;/font&gt;" style="text;html=1;align=center;verticalAlign=middle;whiteSpace=wrap;rounded=1;strokeColor=none;" vertex="1" parent="1">
          <mxGeometry x="334" y="71" width="50" height="12" as="geometry" />
        </mxCell>
        <mxCell id="kzGzP4HYoVfDhsVrHSL8-6" value="&lt;font style=&quot;font-size: 8px;&quot;&gt;Modello&lt;/font&gt;" style="text;html=1;align=center;verticalAlign=middle;whiteSpace=wrap;rounded=1;strokeColor=none;" vertex="1" parent="1">
          <mxGeometry x="293.13" y="13.760000000000005" width="40" height="20" as="geometry" />
        </mxCell>
        <mxCell id="kzGzP4HYoVfDhsVrHSL8-7" value="&lt;font style=&quot;font-size: 8px;&quot;&gt;Marca&lt;/font&gt;" style="text;html=1;align=center;verticalAlign=middle;whiteSpace=wrap;rounded=1;strokeColor=none;glass=0;" vertex="1" parent="1">
          <mxGeometry x="253.76" y="16.259999999999998" width="50" height="15" as="geometry" />
        </mxCell>
        <mxCell id="kzGzP4HYoVfDhsVrHSL8-13" value="" style="endArrow=none;html=1;rounded=0;exitX=0.5;exitY=0;exitDx=0;exitDy=0;" edge="1" parent="1" source="kzGzP4HYoVfDhsVrHSL8-65">
          <mxGeometry width="50" height="50" relative="1" as="geometry">
            <mxPoint x="150" y="110" as="sourcePoint" />
            <mxPoint x="207" y="105" as="targetPoint" />
          </mxGeometry>
        </mxCell>
        <mxCell id="kzGzP4HYoVfDhsVrHSL8-14" value="" style="endArrow=none;html=1;rounded=0;" edge="1" parent="1">
          <mxGeometry width="50" height="50" relative="1" as="geometry">
            <mxPoint x="206.5" y="105" as="sourcePoint" />
            <mxPoint x="330.5" y="105" as="targetPoint" />
          </mxGeometry>
        </mxCell>
        <mxCell id="kzGzP4HYoVfDhsVrHSL8-15" value="" style="shape=singleArrow;direction=north;whiteSpace=wrap;html=1;arrowWidth=0.3808905843098993;arrowSize=0.6576580700573631;" vertex="1" parent="1">
          <mxGeometry x="254.38" y="86.25" width="30" height="18.5" as="geometry" />
        </mxCell>
        <mxCell id="kzGzP4HYoVfDhsVrHSL8-16" value="" style="endArrow=none;html=1;rounded=0;entryX=0.476;entryY=-0.004;entryDx=0;entryDy=0;entryPerimeter=0;" edge="1" parent="1" target="kzGzP4HYoVfDhsVrHSL8-67">
          <mxGeometry width="50" height="50" relative="1" as="geometry">
            <mxPoint x="330" y="105" as="sourcePoint" />
            <mxPoint x="410" y="60" as="targetPoint" />
          </mxGeometry>
        </mxCell>
        <mxCell id="kzGzP4HYoVfDhsVrHSL8-17" style="edgeStyle=orthogonalEdgeStyle;rounded=0;orthogonalLoop=1;jettySize=auto;html=1;exitX=0;exitY=0;exitDx=0;exitDy=0;endArrow=oval;endFill=1;" edge="1" parent="1">
          <mxGeometry relative="1" as="geometry">
            <mxPoint x="221.88" y="33.25" as="targetPoint" />
            <mxPoint x="221.88" y="51.25" as="sourcePoint" />
            <Array as="points" />
          </mxGeometry>
        </mxCell>
        <mxCell id="kzGzP4HYoVfDhsVrHSL8-18" value="&lt;font style=&quot;font-size: 8px;&quot;&gt;Numero di serie&lt;/font&gt;" style="text;html=1;align=center;verticalAlign=middle;whiteSpace=wrap;rounded=1;strokeColor=none;glass=0;" vertex="1" parent="1">
          <mxGeometry x="192.51" y="20.01" width="65.62" height="7.5" as="geometry" />
        </mxCell>
        <mxCell id="kzGzP4HYoVfDhsVrHSL8-19" style="edgeStyle=orthogonalEdgeStyle;rounded=0;orthogonalLoop=1;jettySize=auto;html=1;exitX=0;exitY=0;exitDx=0;exitDy=0;endArrow=oval;endFill=0;" edge="1" parent="1">
          <mxGeometry relative="1" as="geometry">
            <mxPoint x="278.88" y="33.25" as="targetPoint" />
            <mxPoint x="278.88" y="51.25" as="sourcePoint" />
            <Array as="points" />
          </mxGeometry>
        </mxCell>
        <mxCell id="kzGzP4HYoVfDhsVrHSL8-20" style="edgeStyle=orthogonalEdgeStyle;rounded=0;orthogonalLoop=1;jettySize=auto;html=1;exitX=0;exitY=0;exitDx=0;exitDy=0;endArrow=oval;endFill=0;" edge="1" parent="1">
          <mxGeometry relative="1" as="geometry">
            <mxPoint x="310.63" y="33.25" as="targetPoint" />
            <mxPoint x="310.63" y="51.25" as="sourcePoint" />
            <Array as="points" />
          </mxGeometry>
        </mxCell>
        <mxCell id="kzGzP4HYoVfDhsVrHSL8-21" style="edgeStyle=orthogonalEdgeStyle;rounded=0;orthogonalLoop=1;jettySize=auto;html=1;exitX=1;exitY=0.5;exitDx=0;exitDy=0;endArrow=oval;endFill=0;" edge="1" parent="1">
          <mxGeometry relative="1" as="geometry">
            <mxPoint x="316.88" y="79.22" as="sourcePoint" />
            <mxPoint x="340" y="79.22" as="targetPoint" />
          </mxGeometry>
        </mxCell>
        <mxCell id="kzGzP4HYoVfDhsVrHSL8-22" style="edgeStyle=orthogonalEdgeStyle;rounded=0;orthogonalLoop=1;jettySize=auto;html=1;exitX=1;exitY=0.5;exitDx=0;exitDy=0;endArrow=oval;endFill=0;" edge="1" parent="1">
          <mxGeometry relative="1" as="geometry">
            <mxPoint x="316.88" y="54.38" as="sourcePoint" />
            <mxPoint x="340" y="54.38" as="targetPoint" />
          </mxGeometry>
        </mxCell>
        <mxCell id="kzGzP4HYoVfDhsVrHSL8-23" value="&lt;font style=&quot;font-size: 8px;&quot;&gt;Tecnologia&lt;/font&gt;" style="text;html=1;align=center;verticalAlign=middle;whiteSpace=wrap;rounded=1;strokeColor=none;" vertex="1" parent="1">
          <mxGeometry x="341.88" y="43.379999999999995" width="46" height="19" as="geometry" />
        </mxCell>
        <mxCell id="kzGzP4HYoVfDhsVrHSL8-45" style="edgeStyle=orthogonalEdgeStyle;rounded=0;orthogonalLoop=1;jettySize=auto;html=1;exitX=0.5;exitY=1;exitDx=0;exitDy=0;" edge="1" parent="1">
          <mxGeometry relative="1" as="geometry">
            <mxPoint x="111.16" y="149.06" as="sourcePoint" />
            <mxPoint x="111.16" y="149.06" as="targetPoint" />
          </mxGeometry>
        </mxCell>
        <mxCell id="kzGzP4HYoVfDhsVrHSL8-46" style="edgeStyle=orthogonalEdgeStyle;rounded=0;orthogonalLoop=1;jettySize=auto;html=1;exitX=0.5;exitY=1;exitDx=0;exitDy=0;" edge="1" parent="1">
          <mxGeometry relative="1" as="geometry">
            <mxPoint x="129.16" y="148.15000000000003" as="sourcePoint" />
            <mxPoint x="129.16" y="148.15000000000003" as="targetPoint" />
          </mxGeometry>
        </mxCell>
        <mxCell id="kzGzP4HYoVfDhsVrHSL8-56" style="edgeStyle=orthogonalEdgeStyle;rounded=0;orthogonalLoop=1;jettySize=auto;html=1;endArrow=oval;endFill=0;" edge="1" parent="1">
          <mxGeometry relative="1" as="geometry">
            <mxPoint x="307.81000000000006" y="133.4500000000001" as="sourcePoint" />
            <mxPoint x="306.01" y="153.61000000000007" as="targetPoint" />
          </mxGeometry>
        </mxCell>
        <mxCell id="kzGzP4HYoVfDhsVrHSL8-57" value="&lt;font style=&quot;font-size: 8px;&quot;&gt;Risoluzione&lt;/font&gt;" style="text;html=1;align=center;verticalAlign=middle;whiteSpace=wrap;rounded=1;strokeColor=none;glass=0;" vertex="1" parent="1">
          <mxGeometry x="167.2" y="152.64" width="30" height="7.37" as="geometry" />
        </mxCell>
        <mxCell id="kzGzP4HYoVfDhsVrHSL8-58" value="&lt;font style=&quot;font-size: 8px;&quot;&gt;Precisione&lt;/font&gt;" style="text;html=1;align=center;verticalAlign=middle;whiteSpace=wrap;rounded=1;strokeColor=none;glass=0;" vertex="1" parent="1">
          <mxGeometry x="395" y="124.88" width="30" height="6.5" as="geometry" />
        </mxCell>
        <mxCell id="kzGzP4HYoVfDhsVrHSL8-59" style="edgeStyle=orthogonalEdgeStyle;rounded=0;orthogonalLoop=1;jettySize=auto;html=1;endArrow=oval;endFill=0;" edge="1" parent="1">
          <mxGeometry relative="1" as="geometry">
            <mxPoint x="229.61" y="130.44000000000005" as="sourcePoint" />
            <mxPoint x="227.81000000000006" y="150.60000000000002" as="targetPoint" />
          </mxGeometry>
        </mxCell>
        <mxCell id="kzGzP4HYoVfDhsVrHSL8-60" value="&lt;p style=&quot;line-height: 40%;&quot;&gt;&lt;font style=&quot;font-size: 8px;&quot;&gt;Campo visivo&lt;/font&gt;&lt;/p&gt;" style="text;html=1;align=center;verticalAlign=middle;whiteSpace=wrap;rounded=1;strokeColor=none;glass=0;" vertex="1" parent="1">
          <mxGeometry x="213.76" y="155.61" width="30" height="7.37" as="geometry" />
        </mxCell>
        <mxCell id="kzGzP4HYoVfDhsVrHSL8-61" style="edgeStyle=orthogonalEdgeStyle;rounded=0;orthogonalLoop=1;jettySize=auto;html=1;exitX=1;exitY=0.5;exitDx=0;exitDy=0;endArrow=oval;endFill=0;" edge="1" parent="1">
          <mxGeometry relative="1" as="geometry">
            <mxPoint x="175.94" y="134.75" as="sourcePoint" />
            <mxPoint x="154.94" y="134.96999999999997" as="targetPoint" />
          </mxGeometry>
        </mxCell>
        <mxCell id="kzGzP4HYoVfDhsVrHSL8-62" value="&lt;font style=&quot;font-size: 8px;&quot;&gt;ConnettivitÃ &lt;/font&gt;" style="text;html=1;align=center;verticalAlign=middle;whiteSpace=wrap;rounded=1;strokeColor=none;glass=0;" vertex="1" parent="1">
          <mxGeometry x="113.69" y="129" width="30" height="7.37" as="geometry" />
        </mxCell>
        <mxCell id="kzGzP4HYoVfDhsVrHSL8-63" value="&lt;font style=&quot;font-size: 8px;&quot;&gt;SensibilitÃ &lt;/font&gt;" style="text;html=1;align=center;verticalAlign=middle;whiteSpace=wrap;rounded=1;strokeColor=none;glass=0;" vertex="1" parent="1">
          <mxGeometry x="291.25" y="156.48000000000002" width="30" height="6.5" as="geometry" />
        </mxCell>
        <mxCell id="kzGzP4HYoVfDhsVrHSL8-64" style="edgeStyle=orthogonalEdgeStyle;rounded=0;orthogonalLoop=1;jettySize=auto;html=1;endArrow=oval;endFill=0;" edge="1" parent="1">
          <mxGeometry relative="1" as="geometry">
            <mxPoint x="180.88999999999993" y="129.47000000000003" as="sourcePoint" />
            <mxPoint x="179.07" y="149.86" as="targetPoint" />
          </mxGeometry>
        </mxCell>
        <mxCell id="kzGzP4HYoVfDhsVrHSL8-65" value="Visore VR" style="whiteSpace=wrap;html=1;align=center;" vertex="1" parent="1">
          <mxGeometry x="168.13" y="118.13000000000001" width="77.5" height="20" as="geometry" />
        </mxCell>
        <mxCell id="kzGzP4HYoVfDhsVrHSL8-66" style="edgeStyle=orthogonalEdgeStyle;rounded=0;orthogonalLoop=1;jettySize=auto;html=1;exitX=1;exitY=0.5;exitDx=0;exitDy=0;endArrow=oval;endFill=0;" edge="1" parent="1">
          <mxGeometry relative="1" as="geometry">
            <mxPoint x="362.36" y="129" as="sourcePoint" />
            <mxPoint x="385.48" y="129" as="targetPoint" />
          </mxGeometry>
        </mxCell>
        <mxCell id="kzGzP4HYoVfDhsVrHSL8-67" value="Guanti Haptic" style="whiteSpace=wrap;html=1;align=center;" vertex="1" parent="1">
          <mxGeometry x="293.13" y="118.13" width="77.5" height="20" as="geometry" />
        </mxCell>
      </root>
    </mxGraphModel>
  </diagram>
</mxfile>
